<?xml version="1.0" encoding="utf-8"?>
<!-- Generator: Adobe Illustrator 24.2.1, SVG Export Plug-In . SVG Version: 6.00 Build 0)  -->
<svg version="1.1" id="SvgjsSvg1107" xmlns:svgjs="http://svgjs.com/svgjs"
	 xmlns="http://www.w3.org/2000/svg" xmlns:xlink="http://www.w3.org/1999/xlink" x="0px" y="0px" viewBox="0 0 288 288"
	 style="enable-background:new 0 0 288 288;" xml:space="preserve">
<style type="text/css">
	.st0{fill:#911411;}
</style>
<g id="SvgjsG1109">
	<path class="st0" d="M84.1,92.8c0.7,3.6,3.8,6.2,7.5,6.3h7.7c4.1,0.1,7.5-3.2,7.6-7.3c0-0.4,0-0.7-0.1-1.1
		c-1.7-13.2-7.7-25.4-17-34.8c-6.7-6.8-11-15.5-12.2-24.9c-0.6-3.7-3.8-6.5-7.5-6.4h-7.6c-4.2,0-7.6,3.3-7.6,7.5c0,0.3,0,0.6,0,0.9
		c1.8,14.8,8.4,28.7,18.9,39.3C79.2,77.8,82.9,85,84.1,92.8L84.1,92.8z M136.3,92.8c0.7,3.6,3.8,6.2,7.5,6.3h7.7
		c4.1,0.1,7.5-3.2,7.6-7.3c0-0.4,0-0.7-0.1-1.1c-1.7-13.2-7.7-25.4-17-34.8c-6.7-6.8-11-15.5-12.2-24.9c-0.6-3.7-3.8-6.5-7.5-6.4
		h-7.6c-4.1,0.1-7.4,3.5-7.3,7.6c0,0.4,0.1,0.8,0.1,1.2c1.7,14.6,8.2,28.3,18.4,38.9C131.4,77.8,135,85,136.3,92.8z M211.3,114H39.8
		c-8.2-0.3-15,6.2-15.3,14.4c0,0.2,0,0.4,0,0.6v89.5c-0.2,24.8,19.8,45,44.6,45.1c0.2,0,0.4,0,0.6,0h89.5
		c24.7-0.1,44.7-20.1,44.7-44.7h7.5c28.8,0,52.2-23.4,52.2-52.2s-23.4-52.2-52.2-52.2V114z M211.3,188.6h-7.5v-44.7h7.5
		c12.4,0,22.4,10,22.4,22.4C233.7,178.5,223.7,188.6,211.3,188.6L211.3,188.6z"/>
</g>
</svg>
