<?xml version="1.0" encoding="utf-8"?>
<!-- Generator: Adobe Illustrator 24.2.1, SVG Export Plug-In . SVG Version: 6.00 Build 0)  -->
<svg version="1.1" id="SvgjsSvg1026" xmlns:svgjs="http://svgjs.com/svgjs"
	 xmlns="http://www.w3.org/2000/svg" xmlns:xlink="http://www.w3.org/1999/xlink" x="0px" y="0px" viewBox="0 0 288 288"
	 style="enable-background:new 0 0 288 288;" xml:space="preserve">
<style type="text/css">
	.st0{fill:#FFFFFF;}
</style>
<g id="SvgjsG1028">
	<path class="st0" d="M166.5,144l68.8-68.6c6.3-6.3,6.3-16.4,0-22.7s-16.4-6.3-22.7,0L144,121.4L75.4,52.7c-6.3-6.3-16.4-6.3-22.7,0
		s-6.3,16.4,0,22.7l68.8,68.6l-68.8,68.6c-6.3,6.2-6.3,16.3-0.1,22.6c0,0,0.1,0.1,0.1,0.1c6.2,6.3,16.3,6.3,22.6,0.1
		c0,0,0.1-0.1,0.1-0.1l68.6-68.8l68.6,68.8c6.2,6.3,16.3,6.3,22.6,0.1c0,0,0.1-0.1,0.1-0.1c6.3-6.2,6.3-16.3,0.1-22.6
		c0,0-0.1-0.1-0.1-0.1L166.5,144z"/>
</g>
</svg>
