<?xml version="1.0" encoding="utf-8"?>
<!-- Generator: Adobe Illustrator 24.2.1, SVG Export Plug-In . SVG Version: 6.00 Build 0)  -->
<svg version="1.1" id="SvgjsSvg1124" xmlns:svgjs="http://svgjs.com/svgjs"
	 xmlns="http://www.w3.org/2000/svg" xmlns:xlink="http://www.w3.org/1999/xlink" x="0px" y="0px" viewBox="0 0 288 288"
	 style="enable-background:new 0 0 288 288;" xml:space="preserve">
<style type="text/css">
	.st0{fill:#911411;}
	.st1{fill:#E4E4E4;}
</style>
<g id="SvgjsG1126">
	<g>
		<path class="st0" d="M272.7,96.6c-3.9-23.7-20.6-43.3-43.4-50.9c-10.1-3.4-20.9-4.3-31.4-2.4c-19.9-29.7-60-37.7-89.7-17.8
			c-7,4.7-13.1,10.8-17.8,17.8c-10.5-1.9-21.3-1-31.4,2.4C25,56.8,6.6,93.4,17.8,127.3c3.7,11.2,10.3,21.1,19.3,28.7
			c9.5,8.5,14.8,20.8,14.5,33.6v56.2c0,15.3,12.4,27.7,27.7,27.7h129.5c15.3,0,27.7-12.4,27.7-27.7v-56.2c-0.3-12.8,5-25,14.5-33.6
			C268.1,141.4,276.3,118.8,272.7,96.6z M208.7,255H79.3c-5.1,0-9.2-4.1-9.2-9.2v-18.6h148v18.6C218,250.9,213.8,255,208.7,255z
			 M238.9,142c-13.6,12.1-21.2,29.4-20.9,47.6v19.2H70v-19.2c0.3-18.2-7.3-35.5-20.9-47.6C29.7,125.4,27.4,96.3,44,76.9
			C55.9,63,74.7,57.4,92.2,62.6c4.2,1.2,8.8-0.7,10.8-4.6c11.7-22.7,39.6-31.6,62.2-19.9c8.5,4.4,15.5,11.3,19.9,19.9
			c2,3.9,6.5,5.9,10.8,4.6c9-2.7,18.7-2.5,27.6,0.6c24.2,8,37.3,34.1,29.2,58.3C250,129.4,245.3,136.5,238.9,142L238.9,142z"/>
		<path class="st1" d="M144,181c-5.1,0-9.2-4.1-9.2-9.2V107c0-5.1,4.1-9.2,9.2-9.2c5.1,0,9.2,4.1,9.2,9.2v64.7
			C153.2,176.9,149.1,181,144,181z M181,181c-0.6,0-1.2-0.1-1.8-0.2c-5-1-8.2-5.9-7.2-10.9c0,0,0,0,0,0l9.2-46.2
			c1.2-5,6.2-8.1,11.1-6.9c4.7,1.1,7.8,5.7,7,10.5l-9.2,46.2C189.2,177.9,185.4,181,181,181z M107,181c-4.4,0-8.2-3.1-9.1-7.4
			l-9.2-46.2c-1.2-5,1.9-10,6.9-11.1c5-1.2,10,1.9,11.1,6.9c0,0.2,0.1,0.4,0.1,0.6l9.2,46.2c1,5-2.2,9.8-7.2,10.8
			C108.2,180.9,107.6,181,107,181L107,181z"/>
	</g>
</g>
</svg>
