<?xml version="1.0" encoding="utf-8"?>
<!-- Generator: Adobe Illustrator 24.2.1, SVG Export Plug-In . SVG Version: 6.00 Build 0)  -->
<svg version="1.1" id="SvgjsSvg1063" xmlns:svgjs="http://svgjs.com/svgjs"
	 xmlns="http://www.w3.org/2000/svg" xmlns:xlink="http://www.w3.org/1999/xlink" x="0px" y="0px" viewBox="0 0 288 288"
	 style="enable-background:new 0 0 288 288;" xml:space="preserve">
<style type="text/css">
	.st0{fill:none;}
	.st1{fill-rule:evenodd;clip-rule:evenodd;}
</style>
<g id="SvgjsG1065">
	<path class="st0" d="M-7-7h302v302H-7V-7z"/>
	<path class="st1" d="M153.4,59v9.4c-0.2,8.4-13.7,13.1-18,4c-0.6-1.3-0.9-2.6-0.9-4V59h-28.3c-7.3-0.3-12.1-9.8-7.1-15.6
		c1.7-2,3.1-3.1,7.1-3.3c9.4,0,18.8,0,28.3-0.1v-9.3c0-1,0.1-2,0.5-3c1.2-3.8,5-6.5,9.1-6.5c5,0.2,9.1,4,9.2,9.4V40
		c18.8-0.1,37.7-0.2,56.6-0.1v-9.1c0.1-5,3.8-9.2,9.2-9.4h0.4c5,0.2,9.1,4,9.2,9.4V40l10.1,0.2c14.4,0.5,27.3,12.9,27.6,27.9
		c0.4,56.8,0.4,113.6,0,170.4c-0.3,14.6-12.9,27.6-27.9,27.9c-63.1,0.4-126.2,0.4-189.2,0c-14.5-0.3-27.6-12.6-27.9-27.9
		c-0.4-56.8-0.4-113.6,0-170.4c0.3-14.7,12.8-27.8,28.2-27.9h9.5v-9.4c0-1,0.1-2,0.5-3c1.2-3.8,5-6.5,9.1-6.5c5,0.2,9.1,4,9.2,9.4
		v37.7c-0.2,8.4-13.3,13-17.8,4.3c-0.7-1.3-1-2.8-1-4.3V59c-3.2,0-6.4,0-9.7,0c-4.8,0.2-9,4.3-9.2,9.2c-1.1,56.7-1.1,113.4,0,170.1
		c0.2,4.8,4.3,9,9.2,9.2c63,1.2,126,1.2,189,0c4.8-0.2,9-4.3,9.2-9.2c1-56.7,1-113.4,0-170.1c-0.3-5.1-4.4-9-9.5-9.2h-9.4v9.4
		c-0.2,8.3-13.3,12.9-17.8,4.3c-0.7-1.3-1-2.8-1-4.3V59L153.4,59L153.4,59z M68.6,209.8c5.2-0.2,9.6,3.9,9.7,9.1
		c0.2,5.2-3.9,9.6-9.1,9.7c-0.2,0-0.4,0-0.6,0c-5.2-0.2-9.3-4.5-9.1-9.7C59.6,214,63.6,210,68.6,209.8z M106.3,209.8
		c5.2-0.2,9.6,3.8,9.8,9c0.2,5.2-3.8,9.6-9,9.8c-0.3,0-0.6,0-0.8,0c-5.2-0.2-9.2-4.7-9-9.9C97.5,214,101.4,210,106.3,209.8z
		 M144,209.8c5.2,0.2,9.2,4.6,9,9.9c-0.2,4.9-4.1,8.8-9,9c-5.2-0.2-9.2-4.6-9-9.9C135.2,214,139.1,210.1,144,209.8z M68.6,172.1
		c5.2-0.2,9.6,3.9,9.7,9.1c0.2,5.2-3.9,9.6-9.1,9.7c-0.2,0-0.4,0-0.6,0c-5.2-0.2-9.3-4.5-9.1-9.7C59.6,176.3,63.6,172.3,68.6,172.1z
		 M106.3,172.1c5.2,0,9.4,4.2,9.4,9.4c0,5.2-4.2,9.4-9.4,9.4s-9.4-4.2-9.4-9.4C96.9,176.4,101.1,172.1,106.3,172.1z M144,172.1
		c5.2-0.2,9.6,3.9,9.7,9.1c0.2,5.2-3.9,9.6-9.1,9.7c-0.2,0-0.4,0-0.6,0c-5.2-0.2-9.3-4.5-9.1-9.7C135,176.3,139,172.3,144,172.1z
		 M181.7,172.1c5.2-0.2,9.6,3.9,9.7,9.1c0.2,5.2-3.9,9.6-9.1,9.7c-0.2,0-0.4,0-0.6,0c-5.2-0.2-9.3-4.5-9.1-9.7
		C172.7,176.3,176.7,172.3,181.7,172.1z M219.4,172.1c5.2-0.2,9.6,3.9,9.7,9.1c0.2,5.2-3.9,9.6-9.1,9.7c-0.2,0-0.4,0-0.6,0
		c-5.2-0.2-9.3-4.5-9.1-9.7C210.4,176.3,214.4,172.3,219.4,172.1z M106.3,134.4c5.2,0,9.4,4.2,9.4,9.4c0,5.2-4.2,9.4-9.4,9.4
		c0,0,0,0,0,0c-5.2,0-9.4-4.2-9.4-9.4S101.1,134.4,106.3,134.4z M144,134.4c5.2-0.2,9.6,3.8,9.9,9c0.2,5.2-3.8,9.6-9,9.9
		c-0.3,0-0.6,0-0.8,0c-5.2-0.2-9.2-4.6-9-9.9C135.2,138.6,139.1,134.6,144,134.4z M181.7,134.4c5.2-0.2,9.6,3.8,9.9,9
		c0.2,5.2-3.8,9.6-9,9.9c-0.3,0-0.6,0-0.8,0c-5.2-0.2-9.2-4.6-9-9.9C172.9,138.6,176.8,134.6,181.7,134.4z M219.4,134.4
		c5.2,0,9.4,4.2,9.4,9.4c0,5.2-4.2,9.4-9.4,9.4l0,0c-5.2,0-9.4-4.2-9.4-9.4C210,138.7,214.2,134.4,219.4,134.4z"/>
</g>
</svg>
