<?xml version="1.0" encoding="utf-8"?>
<!-- Generator: Adobe Illustrator 24.2.1, SVG Export Plug-In . SVG Version: 6.00 Build 0)  -->
<svg version="1.1" id="SvgjsSvg1043" xmlns:svgjs="http://svgjs.com/svgjs"
	 xmlns="http://www.w3.org/2000/svg" xmlns:xlink="http://www.w3.org/1999/xlink" x="0px" y="0px" viewBox="0 0 288 288"
	 style="enable-background:new 0 0 288 288;" xml:space="preserve">
<style type="text/css">
	.st0{fill:#911411;}
</style>
<g id="SvgjsG1045">
	<path class="st0" d="M107.8,92.9c19.7,0,39.7,5.8,39.3,5.7c2.2,0.2,25.2,7.3,45-11.3l9.2-8.7c-2-7.4-6-16.1-14.3-22.6
		c-4.5,3.4-14.4,9.3-30,9.8l-0.4-11.6c14-0.4,21.9-6.2,24.1-8c-0.3-17.1-8-31.6-23.7-39.1l-5.3-2.5l-1.7,6.2c-2.8,10-10.8,18-21,19
		c-19.1,1.9-33.7,17.5-37.6,36.7c7.4-4,16.1-6.7,25.4-7.8l1.4,11.5c-10.7,1.3-20.5,5.2-27.7,10.7c0,0,0,0,0,0.1
		c-3.3,4.7-5.6,9.8-6.7,15.4C90.8,94,98.9,92.9,107.8,92.9z"/>
	<path class="st0" d="M113,149.1l31,14.7l31-14.7l31,14.7l21.6-10.2c2.5-7.7,3-15.5,3-15.5c0.7-12.9-4-22.7-8.6-29.2
		c-6.1-8.5-12.2-12.4-18.8-16.1c-0.1,0-25.3,27.8-60,16.8c-31.3-7.9-54.6-6.5-69.2,4.3c-7.7,5.7-12.8,13.9-15.3,24.3
		c0,0-1.6,7.9-1.6,13.9L82,163.8L113,149.1z"/>
	<path class="st0" d="M210.7,174.4l-26.3,76l-11-3.8l25.4-73.4L175,162l-25.2,11.9v51.4h-11.6v-51.4L113,162l-23.8,11.3l25.4,73.4
		l-11,3.8l-26.3-76l-31.2-14.7l35.4,123.8h125l35.4-123.8L210.7,174.4z M149.8,248.6h-11.6V237h11.6V248.6z"/>
</g>
</svg>
