<?xml version="1.0" encoding="utf-8"?>
<!-- Generator: Adobe Illustrator 24.2.1, SVG Export Plug-In . SVG Version: 6.00 Build 0)  -->
<svg version="1.1" id="SvgjsSvg1197" xmlns:svgjs="http://svgjs.com/svgjs"
	 xmlns="http://www.w3.org/2000/svg" xmlns:xlink="http://www.w3.org/1999/xlink" x="0px" y="0px" viewBox="0 0 288 288"
	 style="enable-background:new 0 0 288 288;" xml:space="preserve">
<style type="text/css">
	.st0{fill:#911411;}
</style>
<g id="SvgjsG1199">
	<path class="st0" d="M11.3,104.8c0-10.8,2-22.5,5.9-32.3C20.1,63.7,22,54.8,21,46c0-5.9,3.9-9.8,9.8-9.8s9.8,3.9,9.8,9.8
		c0,10.8-2,22.5-5.9,32.3c-2.9,7.8-4.9,16.7-4.9,26.5c0,5.9-3.9,9.8-9.8,9.8S11.3,110.7,11.3,104.8z M62.2,85.2
		c5.9,0,9.8-3.9,9.8-9.8c0-3.9,1-7.8,2-11.8c2.9-4.9,3.9-11.8,3.9-17.6s-3.9-9.8-9.8-9.8c-5.9,0-9.8,3.9-9.8,9.8c0,3.9-1,7.8-2,11.8
		c-2.9,4.9-3.9,11.8-3.9,17.6C52.4,81.3,57.3,85.2,62.2,85.2z M256.2,104.8c0,5.9,3.9,9.8,9.8,9.8s9.8-3.9,9.8-9.8
		c0-10.8-2-22.5-5.9-32.3C267,64.6,265,55.8,265,46c0-5.9-3.9-9.8-9.8-9.8c-5.9,0-9.8,3.9-9.8,9.8c0,10.8,2,22.5,5.9,32.3
		C255.2,87.2,257.2,96,256.2,104.8z M215,75.4c0,5.9,3.9,9.8,9.8,9.8s9.8-3.9,9.8-9.8c0-5.9-1-12.7-2.9-17.6c-1-3.9-2-7.8-2-11.8
		c0-5.9-3.9-9.8-9.8-9.8s-9.8,3.9-9.8,9.8s1,12.7,2.9,17.6C214,67.6,215,71.5,215,75.4z M25.9,202.8h235.1
		C261.1,144,218,95,159.2,86.2c6.9-8.8,3.9-20.6-4.9-27.4c-8.8-6.9-20.6-2.9-27.4,5.9c-4.9,6.9-4.9,15.7,0,22.5
		C69.1,95,25.9,144,25.9,202.8z M22,239c4.9,7.8,14.7,12.7,24.5,12.7h195c9.8,0,18.6-4.9,24.5-12.7l10.8-16.7H11.3L22,239z"/>
</g>
</svg>
