<?xml version="1.0" encoding="utf-8"?>
<!-- Generator: Adobe Illustrator 24.2.1, SVG Export Plug-In . SVG Version: 6.00 Build 0)  -->
<svg version="1.1" id="SvgjsSvg1295" xmlns:svgjs="http://svgjs.com/svgjs"
	 xmlns="http://www.w3.org/2000/svg" xmlns:xlink="http://www.w3.org/1999/xlink" x="0px" y="0px" viewBox="0 0 288 288"
	 style="enable-background:new 0 0 288 288;" xml:space="preserve">
<style type="text/css">
	.st0{fill:#911411;}
</style>
<g id="SvgjsG1297">
	<path class="st0" d="M23.2,105.4h30.5c2.2,0,4-1.8,4-4c0-2.2-1.8-4-4-4H23.2c-2.2,0-4,1.8-4,4C19.2,103.6,21,105.4,23.2,105.4z
		 M15.2,121.5h38.6c2.2,0,4-1.8,4-4c0-2.2-1.8-4-4-4H15.2c-2.2,0-4,1.8-4,4C11.1,119.7,13,121.5,15.2,121.5z M31.3,89.3h22.5
		c2.2,0,4-1.8,4-4c0-2.2-1.8-4-4-4H31.3c-2.2,0-4,1.8-4,4C27.2,87.5,29.1,89.3,31.3,89.3z M277.4,236.9h-10.5
		c5-4.5,8.4-10.6,9.5-17.3c1.3-7.7-0.4-15.6-4.8-22l2.3-1.4c1.9-1.1,2.5-3.6,1.4-5.5c-7.5-12.6-22-19.5-36.5-17.3
		c-3.4-8.2-7-19.8-10.4-31.1c-2-6.6-4-13.3-6.1-19.5h2.2c2.2,0,4-1.8,4-4V95.1c0-2.2-1.8-4-4-4l0,0h-16.3c-7.2,0-13.5,4.9-15.3,11.8
		h-15.4c-2.2,0-4,1.8-4,4c0,2.2,1.8,4,4,4h15.4c0.6,2.3,1.7,4.4,3.2,6.2c0,0.2,0.1,0.5,0.2,0.7c2.2,6.6,6.2,21.3,6.5,22.6
		c4.4,20.8,5,46.6-17.1,51.5c-9.8,2.1-20-1.2-26.7-8.7c-8.3-9.5-8.9-24.1-1.3-35.6c5.3-3.4,6.8-10.4,3.5-15.7
		c-2.1-3.3-5.7-5.3-9.6-5.3h-3.4c0.1-0.4,0.1-0.9,0.1-1.3v-15.3c18.5-1.7,32.1-18,30.4-36.4s-18-32.1-36.4-30.4
		c-9.9,0.9-18.9,6.1-24.6,14.3H75.2c-5.2,0-9.4,4.2-9.4,9.4v58.4c0,5.2,4.2,9.4,9.4,9.4h6.3c-1.3,4.2,0,8.8,3.3,11.8
		c-1.4,0.6-2.7,1.3-4.1,2.1c-13.8,8-25.5,23.5-29.7,39.6c-2.7,10-2.1,19.1,1.6,25.6l0,0c0,0.1,0.1,0.1,0.1,0.2c0,0,0,0,0,0.1
		c0.1,0.1,0.1,0.2,0.2,0.3c0,0,0,0.1,0.1,0.1c0.1,0.1,0.2,0.2,0.3,0.3c0,0,0.1,0.1,0.1,0.1c0.1,0.1,0.2,0.2,0.3,0.2
		c0,0,0.1,0.1,0.1,0.1c0.1,0.1,0.2,0.2,0.4,0.3l0,0c0.1,0.1,0.3,0.2,0.4,0.2c0,0,0.1,0,0.1,0c0.1,0,0.2,0.1,0.4,0.1c0,0,0.1,0,0.1,0
		c0,0,0.1,0,0.1,0c0.1,0,0.2,0,0.2,0c0,0,0.1,0,0.1,0c0.2,0,0.3,0,0.5,0c0,0,0,0,0,0h0l14.3-0.2c0.4,8.1,4,15.7,10.1,21h-70
		c-2.2,0-4,1.8-4,4s1.8,4,4,4h266.7c2.2,0,4-1.8,4-4S279.6,236.9,277.4,236.9L277.4,236.9z M244.2,181c8.5,0,16.6,3.8,21.9,10.4
		l-1.9,1.1c-0.5,0.2-0.9,0.4-1.3,0.7l-46.3,27.6c-5.3-12.9-0.4-27.8,11.6-35l1.6-0.9C234.2,182.4,239.1,181,244.2,181L244.2,181z
		 M252.6,215.5c-0.6,3.3-3.7,5.5-7,5c-2.4-0.4-4.3-2.2-4.9-4.5l10-5.9C252.2,211.4,253,213.5,252.6,215.5L252.6,215.5z M200.4,106.9
		c0-4.3,3.5-7.8,7.8-7.8h12.3v15.6h-12.3C203.9,114.7,200.5,111.3,200.4,106.9L200.4,106.9z M151.6,134.8c1.8,0,3.3,1.5,3.3,3.3
		c0,1.8-1.5,3.3-3.3,3.3h-38.3c-2.5-0.1-5-0.1-7.5,0H92.4c-1.8,0-3.3-1.4-3.4-3.3c0-1.8,1.4-3.3,3.3-3.4c0,0,0.1,0,0.1,0H151.6z
		 M145.2,51.2c14.1,0,25.5,11.4,25.5,25.5c0,14.1-11.4,25.5-25.5,25.5s-25.5-11.4-25.5-25.5c0,0,0,0,0,0
		C119.7,62.6,131.1,51.2,145.2,51.2L145.2,51.2z M75.2,126.7c-0.7,0-1.3-0.6-1.3-1.3V66.9c0-0.7,0.6-1.3,1.3-1.3h38.3
		c-6.1,17.5,3.1,36.6,20.6,42.7c2,0.7,4,1.2,6.1,1.5v15.5c0,0.7-0.6,1.3-1.3,1.3H75.2z M58.8,190.3c3.7-14.1,13.9-27.7,26-34.7
		c6.5-3.7,13.8-5.8,21.3-6.2h41.6c-5.7,13.3-3.8,28.6,5.4,39.1c8.6,9.7,21.8,14,34.5,11.3c22.2-4.9,30.5-26.6,23.2-61
		c-0.3-1.3-2.4-9.2-4.4-16.1c0.7,0.1,1.4,0.1,2,0.1h5.6c2.3,6.7,4.6,14.3,6.9,21.8c3.3,11,6.8,22.4,10.2,30.8
		c-1.8,0.7-3.6,1.6-5.3,2.6l-1.6,0.9c-8.3,4.9-14.2,12.9-16.6,22.2c-0.4,1.6-0.7,3.2-0.9,4.8l-61.7,0.8
		c-4.1-18.7-17.1-33.7-33.3-37.8c-11-2.8-23.6-0.6-34.4,6.1c-8.4,5.2-15.2,12.6-19.7,21.4C57.8,194.4,58.2,192.3,58.8,190.3
		L58.8,190.3z M61.5,207.9c3.5-10.9,10.7-20.2,20-26c9-5.5,19.2-7.4,28.1-5.1c12.8,3.3,23.3,15.1,27.1,30.1L61.5,207.9z
		 M106.7,215.3c-0.6,3.3-3.7,5.5-7,5c-2.5-0.4-4.4-2.3-4.9-4.8L106.7,215.3z M100.7,236.5c-11.7,0-21.4-9.1-22.1-20.8l8.1-0.1
		c0.7,7.8,7.6,13.5,15.3,12.8c6.9-0.6,12.3-6.2,12.8-13.1l8.1-0.1C122.4,227,112.7,236.5,100.7,236.5L100.7,236.5z M120.8,236.9
		c6.3-5.6,9.9-13.5,10.1-21.8l10.5-0.1c0.2,0,0.4,0,0.5,0l64.6-0.8c0.6,5.2,2.2,10.1,4.9,14.6c1.1,1.9,3.6,2.5,5.5,1.4l2.8-1.7
		c1.7,3.2,3.9,6.1,6.5,8.5H120.8z M259.4,232.6c-10,7.1-23.8,4.7-30.9-5.3c-0.7-1-1.3-2-1.8-3l7-4.1c3.1,7.1,11.4,10.4,18.6,7.3
		c7.1-3.1,10.4-11.4,7.3-18.6c-0.5-1.1-1.1-2.1-1.8-3l7-4.1C271.8,211.6,269.4,225.5,259.4,232.6
		C259.4,232.6,259.4,232.6,259.4,232.6L259.4,232.6z M145.2,80.7h11.6c2.2,0,4-1.8,4-4s-1.8-4-4-4h-7.6V61.4c0-2.2-1.8-4-4-4
		c-2.2,0-4,1.8-4,4v15.2C141.2,78.9,143,80.7,145.2,80.7z"/>
</g>
</svg>
