<?xml version="1.0" encoding="utf-8"?>
<!-- Generator: Adobe Illustrator 24.2.1, SVG Export Plug-In . SVG Version: 6.00 Build 0)  -->
<svg version="1.1" id="SvgjsSvg1011" xmlns:svgjs="http://svgjs.com/svgjs"
	 xmlns="http://www.w3.org/2000/svg" xmlns:xlink="http://www.w3.org/1999/xlink" x="0px" y="0px" viewBox="0 0 288 288"
	 style="enable-background:new 0 0 288 288;" xml:space="preserve">
<style type="text/css">
	.st0{fill:#FFFFFF;}
</style>
<g id="SvgjsG1013">
	<path class="st0" d="M240.3,124.9H47.7c-10.1,0-18.3,8.5-18.3,19.1s8.2,19.1,18.3,19.1h192.7c10.1,0,18.3-8.5,18.3-19.1
		S250.4,124.9,240.3,124.9z M240.3,48.5H47.7c-10.1,0-18.3,8.5-18.3,19.1s8.2,19.1,18.3,19.1h192.7c10.1,0,18.3-8.5,18.3-19.1
		S250.4,48.5,240.3,48.5z M240.3,201.3H47.7c-10.1,0-18.3,8.5-18.3,19.1s8.2,19.1,18.3,19.1h192.7c10.1,0,18.3-8.5,18.3-19.1
		C258.6,209.8,250.4,201.3,240.3,201.3z"/>
</g>
</svg>
