<?xml version="1.0" encoding="utf-8"?>
<!-- Generator: Adobe Illustrator 24.2.1, SVG Export Plug-In . SVG Version: 6.00 Build 0)  -->
<svg version="1.1" id="Layer_1" xmlns="http://www.w3.org/2000/svg" xmlns:xlink="http://www.w3.org/1999/xlink" x="0px" y="0px"
	 viewBox="0 0 500 500" style="enable-background:new 0 0 500 500;" xml:space="preserve">
<style type="text/css">
	.st0{fill:#EDEDED;}
	.st1{fill:#911411;}
	.st2{fill:none;}
</style>
<g>
	<g>
		<path class="st0" d="M215.6,396.2c-24.6-0.7-50.1-5.5-72.1-21.4c-18.4-13.3-28.7-31.1-32-52.7c-2.2-14.8-3-29.7-5.5-44.4
			c-4.6-28.4-14.2-55-31.4-78.9c-11.4-15.9-25.6-28.7-44.6-36c-4.6-1.7-9.7-2.8-14.3-4.5c-8-3-12.3-11.1-10.7-19.4
			c1.7-9.8,8.3-16.6,17.1-17.1c3.2-0.1,6.7,0,9.8,0.7c29.4,7.1,52,23.5,69.5,46.9c14.2,19,25.3,39.5,33.3,61.5
			c6.7,18.8,11.6,37.9,13.3,57.9c0.6,8,0.7,16.2,2,24c3.5,20.6,17.5,36.5,39.4,42.1c20.6,5.2,40.8,3.8,61.4,0.6
			c27.9-4.2,54.7-12.2,81.5-20.1c26.6-7.8,52.4-18,77.6-29.1c18.2-8.1,35.9-16.9,53.9-25.6c6.5-3.2,13-4.1,19.8-1
			c15.9,6.9,14.6,26.5,2.8,33.7c-10,6.1-20.6,11.6-31.4,16.4c-15.9,7.1-32,13.6-48.2,20c-11.6,4.5-23.6,8-35.3,12
			c-9.6,3.3-18.8,6.8-28.4,10c-9,3-18,6.1-27.2,8.4c-18.8,4.8-37.6,9-56.5,13.3c-1.4,0.3-2.9,0.6-4.3,0.7
			C242.4,395,230.1,395.5,215.6,396.2z"/>
		<path class="st1" d="M373.8,13.6c0.4,3,1.2,5.9,1,9c-0.1,5.2-0.3,10.4-1.4,15.5c-3,12.7-4.2,25.9-8.7,38.5
			c-5.1,14.3-9.3,29-15.5,42.8c-6.1,13.9-13,27.4-19.5,41c-1.2,2.3-2.5,4.6-3.6,6.8c-8.4,15.9-18.2,31.1-28.2,46.2
			c-9.3,13.9-18.5,27.8-27.8,41.7c-1,1.6-2.6,3-3.8,4.5c-6.1-2.2-11.4-4.6-17.2-6.2c-8.5-2.3-14.2,0.3-18.5,7.5
			c-14.3,23.3-28.8,46.8-43.3,70.1c-1.4,2.5-3.2,4.6-5.1,7.2c-6.1-3.3-10.3-7.7-13.6-12.7c-4.5-6.8-4.8-12.9,0.4-19.8
			c5.1-6.9,7.7-15.6,13.2-22.1c6.8-8.1,10.7-17.7,16.5-26.3c16.5-25,33.3-49.9,48.5-75.7c13.5-22.9,28.4-45,43.6-66.9
			c18-25.8,38.5-49.9,58.2-74.6c7.4-9.3,15.3-18,22.9-26.9C372.5,13.1,373.2,13.3,373.8,13.6z"/>
		<path class="st0" d="M143.1,215.5c-4.8-9.3-8.8-17.1-13.5-25.8c5.5-6.8,11-13.8,16.6-20.7c7.4-9,14.6-18,22.4-26.6
			c3.3-3.8,3.2-7.1,0.9-11c-2.5-3.9-5.4-7.7-7.2-11.7c-8.4-18.7-3.5-35.9,6.9-52.1c8.1-12.7,18.7-23.2,32-30.7
			c16.2-9.1,34-12.4,52.5-10c7.7,1,12.4,7.4,15.6,14.2c4.9,10.4,6.4,21.6,5.2,32.9c-1.2,11.1-3,22.3-9,32.3
			c-6.9,11.7-13.6,23.6-25.5,32c-8.1,5.8-17.4,8.8-26.8,11.7c-3,0.9-6.9-0.7-10.4-1.4c-11.9-2.8-16.6-0.9-23,9.3
			c-11.1,18-22.1,35.8-33.3,53.6C146.1,212.2,145.1,213.1,143.1,215.5z M256.6,43.5c-0.7,0.1-1.6,0.3-2.3,0.3
			c-1.3,18.5-6.4,35.9-15.9,52.1c-9.8,16.6-25.6,26.9-41.8,37.5c13,1.9,24.8,3,36.2-5.9c22.9-17.8,32.7-40.2,29.2-68
			C261.5,54.1,258.4,48.9,256.6,43.5z"/>
		<path class="st0" d="M449.5,159.2c6.9,6.1,8,9.4,4.2,15.2c-11.9,18.4-20.1,38.4-29.7,57.8c-6.1,12.4-14,23.9-27.6,30.7
			c-8.7,4.5-17.8,4.6-27.1,3.8c-9.4-0.9-12.6,0.6-17.2,8.5c-8.7,14.8-17.5,29.4-26.5,44c-2.8,4.6-6.4,8-12.4,8.8
			c-5.8,0.9-11.3,3.2-18.2,5.2c0.6-2.3,0.6-3.6,1.3-4.6c14.5-21,28.8-42.1,43.6-63c3.9-5.5,4.5-10.3,0.9-15.9
			c-2.2-3.3-4.5-6.8-6.1-10.6c-6.2-14.3-3.2-27.6,6.1-39.8c13.5-17.8,27.4-35.5,41.1-53.1c3.2-4.2,6.4-8.3,9.6-12.4
			c2.3-2.9,4.9-5.5,9-2.8c4.1,2.8,2.6,5.6,0.6,9c-14.3,21.9-28.4,43.7-42.7,65.7c-0.7,1.2-1.4,2.5-2.2,3.8c-1.4,2.6-1.7,5.2,1.3,6.7
			c3,1.6,5.8,0.7,7.7-2.3c2.5-3.9,4.8-8,7.2-11.9c11.7-18.5,23.6-37.2,35.3-55.7c0.9-1.4,1.9-2.9,3.2-4.2c2.8-2.8,6.1-2.5,8.8-0.6
			c2.8,1.9,2,4.5,0.4,6.9c-3.9,5.8-7.8,11.6-11.6,17.4c-10.7,16.5-21.6,33-32.3,49.7c-1.3,2-2.2,4.5-3.3,6.8c4.9,2.6,8,1.4,10.6-2.3
			c10.1-15.2,20.6-30.3,30.7-45.5c4.5-6.8,9.3-13.5,13.3-20.4c2-3.5,4.5-4.5,8-2.9c3.6,1.7,4.3,4.8,1.9,8.7
			c-7.7,12-15.3,23.9-23.2,35.9c-6.9,10.7-14,21.4-21,32c-0.4,0.7-0.7,1.6-1.3,2.3c-2,3-1.2,6.1,1.9,7.1c1.7,0.6,4.6-1.2,6.7-2.5
			c1.2-0.7,1.6-2.5,2.3-3.6c13.9-21.7,27.6-43.6,41.5-65.3C445.9,163.6,447.8,161.4,449.5,159.2z M346.5,232.7
			c-0.3,24.5,26.1,33.3,40.4,22.3C371.1,252,358,244.9,346.5,232.7z"/>
		<path class="st1" d="M333.1,467.8c21.9-1,43.6-1.9,66.9-2.9c-4.1-5.1-8.3-9-10.7-13.8c-3.3-6.1-9.3-5.4-16.2-6.8
			c4.3-1.4,6.9-2.2,10-3.2c-0.1-1.9,0.1-3.6-0.3-5.2c-4.5-16.8,1-31.6,12.9-43.3c11.6-11.4,26.2-15.9,43.6-14.3
			c26.9,2.5,45.6,27.5,43,52.1c-2.5,23.9-21.4,43.7-48.6,43.7c-18,0-36-0.9-54-1.7c-15.5-0.7-31-2.2-46.5-3.2
			C333.3,468.7,333.1,468.3,333.1,467.8z"/>
		<path class="st1" d="M148,469.4c4.9-0.6,9.7-1.2,16.2-1.9c-2.6-3.3-4.1-5.4-5.6-7.2c-10.4-11.9-9.1-24.9-3.2-37.8
			c5.8-12.4,16.8-18.4,30.5-18.7c14-0.3,25.6,5.1,32.7,17.4c11.4,19.8,3.9,38.8-14.9,50.1c-3.3,2-8.1,2.8-12.2,2.6
			c-13.5-0.3-26.9-1.2-40.4-1.9c-1,0-2-0.7-3.2-1.2C148,470.4,148,470,148,469.4z"/>
	</g>
	<rect x="338.5" y="867.1" class="st2" width="3.5" height="5.4"/>
</g>
</svg>
