<?xml version="1.0" encoding="utf-8"?>
<!-- Generator: Adobe Illustrator 24.2.1, SVG Export Plug-In . SVG Version: 6.00 Build 0)  -->
<svg version="1.1" id="SvgjsSvg1151" xmlns:svgjs="http://svgjs.com/svgjs"
	 xmlns="http://www.w3.org/2000/svg" xmlns:xlink="http://www.w3.org/1999/xlink" x="0px" y="0px" viewBox="0 0 288 288"
	 style="enable-background:new 0 0 288 288;" xml:space="preserve">
<style type="text/css">
	.st0{fill:#911411;}
</style>
<g id="SvgjsG1153">
	<g>
		<rect x="194.9" y="162.4" class="st0" width="78.7" height="13.9"/>
		<polygon class="st0" points="265.4,143.9 203.2,143.9 200.8,153.1 267.7,153.1 		"/>
		<polygon class="st0" points="203.9,273.5 264.6,273.5 268.8,185.5 199.8,185.5 		"/>
		<path class="st0" d="M255.1,122.6l7.9-7.9l-6.6-6.6l-9.3,9.3c-0.9,0.9-1.3,2.1-1.3,3.3v18.5h9.3V122.6z M118.5,227.2
			c1.3,0,2.3-1,2.3-2.3v-6.9c0-2.6,2.1-4.6,4.6-4.6h9.3v-13.9H95.4l-9.9,13.9h7.5c2.6,0,4.6,2.1,4.6,4.6v13.9c0,1.2,0.5,2.4,1.3,3.2
			c0.8,0.9,2,1.4,3.3,1.4c2.6,0,4.6-2.1,4.6-4.6v-9.3c0-2.6,2.1-4.6,4.6-4.6s4.6,2.1,4.6,4.6v2.3
			C116.2,226.2,117.3,227.2,118.5,227.2z M88.4,139.3c-28.9,0-52.9,22.2-55.4,50.9h110.7C141.4,161.4,117.3,139.3,88.4,139.3z"/>
		<polygon class="st0" points="84.1,199.4 55.8,199.4 69.9,219.2 		"/>
		<polygon class="st0" points="42.2,213.3 54.3,213.3 44.4,199.4 42.2,199.4 		"/>
		<rect x="14.4" y="264.2" class="st0" width="148.1" height="9.3"/>
		<path class="st0" d="M129.7,255c8.1-9,13.1-20.4,14.1-32.4h-13.7v2.3c0,6.4-5.2,11.6-11.6,11.6c-1,0-2-0.2-3-0.5
			c-1.8,5.8-7.1,9.7-13.2,9.7c-7.7,0-13.9-6.2-13.9-13.9v-9.3h-9.5l-5.2,7.3c-1.5,2.1-4.3,2.6-6.4,1.1c-0.4-0.3-0.8-0.7-1.1-1.1
			l-5.2-7.3H33.1c1,12.1,6,23.4,14.1,32.4H129.7z M194.9,74.4v-9.3h4.4c-2.3-27-23.7-48.4-50.7-50.7v4.4h-9.3v-4.4
			c-27,2.3-48.4,23.7-50.7,50.7h4.4v9.3h-4.4c2.3,27,23.7,48.4,50.7,50.7v-4.4h9.3v4.4c27-2.3,48.4-23.7,50.7-50.7H194.9z M144,79.1
			c-5.1,0-9.2-4.1-9.3-9.2c0-3.3,1.8-6.4,4.6-8V28.2h9.3v33.7c4.4,2.5,5.9,8.2,3.4,12.6C150.4,77.3,147.3,79.1,144,79.1z"/>
	</g>
</g>
</svg>
