<?xml version="1.0" encoding="utf-8"?>
<!-- Generator: Adobe Illustrator 24.2.1, SVG Export Plug-In . SVG Version: 6.00 Build 0)  -->
<svg version="1.1" id="SvgjsSvg1182" xmlns:svgjs="http://svgjs.com/svgjs"
	 xmlns="http://www.w3.org/2000/svg" xmlns:xlink="http://www.w3.org/1999/xlink" x="0px" y="0px" viewBox="0 0 288 288"
	 style="enable-background:new 0 0 288 288;" xml:space="preserve">
<style type="text/css">
	.st0{fill:#911411;}
</style>
<g id="SvgjsG1184">
	<path class="st0" d="M144,7C68.3,7,7,68.3,7,144s61.3,137,137,137s137-61.3,137-137S219.7,7,144,7z M144,87.3
		c7.8,0,14.7,6.8,14.7,14.7c0,0.7-0.2,1.1-0.3,1.7c27.5,6.4,48.2,30.8,49.1,59.9h9.9c2.9,0,5.9,2,5.9,4.9c0,2.9-3.9,4.9-6.9,4.9
		H71.6c-2.9,0-5.9-2-5.9-4.9c0-2.9,2.9-4.9,5.9-4.9h8.9c0.9-29.1,21.7-53.5,49.1-59.9c-0.1-0.6-0.3-1.2-0.3-1.7
		C129.3,94.1,136.2,87.3,144,87.3z M144,97c-2.9,0-4.9,2-4.9,4.9c0,0.1,0,0.2,0,0.3c1.6-0.1,3.2-0.3,4.9-0.3s3.2,0.1,4.9,0.3
		c0-0.1,0-0.2,0-0.3C148.9,99,146.9,97,144,97z M144,111.7c-29,0-52.7,23.1-53.7,51.9h107.4C196.7,134.9,173,111.7,144,111.7z
		 M135.2,119.3c1.8,0.2,3.1,1.7,3.9,3.2c1,2.9-1,4.9-2.9,5.9c-14.7,3.9-25.4,14.7-29.4,28.4c0,2-2,3.9-3.9,3.9h-1
		c-2.9-1-3.9-2.9-3.9-5.9c4.9-17.6,17.6-31.3,35.2-35.2C133.9,119.3,134.6,119.2,135.2,119.3z"/>
</g>
</svg>
