<?xml version="1.0" encoding="utf-8"?>
<!-- Generator: Adobe Illustrator 24.2.1, SVG Export Plug-In . SVG Version: 6.00 Build 0)  -->
<svg version="1.1" id="SvgjsSvg1310" xmlns:svgjs="http://svgjs.com/svgjs"
	 xmlns="http://www.w3.org/2000/svg" xmlns:xlink="http://www.w3.org/1999/xlink" x="0px" y="0px" viewBox="0 0 288 288"
	 style="enable-background:new 0 0 288 288;" xml:space="preserve">
<style type="text/css">
	.st0{fill:#FFFFFF;}
</style>
<g id="SvgjsG1312">
	<path class="st0" d="M158.5,154.4L158.5,154.4c-8.3-8.3-20.7-8.3-29,0l-62.1,62.1c-8.3,8.3-8.3,20.7,0,29s20.7,8.3,29,0l47.6-47.6
		l47.6,47.6c4.1,4.1,8.3,6.2,14.5,6.2s10.4-2.1,14.5-6.2c8.3-8.3,8.3-20.7,0-29L158.5,154.4z M96.4,133.6L144,86l47.6,47.6
		c4.1,4.1,8.3,6.2,14.5,6.2s10.4-2.1,14.5-6.2c8.3-8.3,8.3-20.7,0-29l-62.1-62.1l0,0c-8.3-8.3-20.7-8.3-29,0l-62.1,62.1
		c-8.3,8.3-8.3,20.7,0,29C75.7,139.9,88.1,139.9,96.4,133.6z"/>
</g>
</svg>
