<?xml version="1.0" encoding="utf-8"?>
<!-- Generator: Adobe Illustrator 24.2.1, SVG Export Plug-In . SVG Version: 6.00 Build 0)  -->
<svg version="1.1" id="SvgjsSvg1018" xmlns:svgjs="http://svgjs.com/svgjs"
	 xmlns="http://www.w3.org/2000/svg" xmlns:xlink="http://www.w3.org/1999/xlink" x="0px" y="0px" viewBox="0 0 288 288"
	 style="enable-background:new 0 0 288 288;" xml:space="preserve">
<style type="text/css">
	.st0{fill:#911411;}
	.st1{fill:#FF6699;}
</style>
<g id="SvgjsG1020">
	<path class="st0" d="M272.6,219.1l-6.1-23.1l-4.6-17.7v0l-4.6-17.9c3.4-1.2,6.9-2.5,10.3-3.9c2-0.8,3-3.1,2.1-5.1
		c-0.8-2-3.1-3-5.1-2.1c-78.7,31.6-158.5,31.6-237.2,0c-2-0.8-4.3,0.2-5.1,2.1c-0.8,2,0.2,4.3,2.1,5.1c2.2,0.9,4.3,1.7,6.5,2.5
		l-5,19.3v0L21.5,196l-6,23.1c-1,3.7,0.2,7.7,3.2,10.2c2.9,2.5,7,3.2,10.5,1.6l20.2-8.5c0.9-0.4,2-0.1,2.7,0.7l13.5,17.3
		c2,2.5,4.9,3.9,7.9,3.9c0.7,0,1.4-0.1,2.1-0.2c3.8-0.8,6.7-3.6,7.7-7.3l6.1-23.2l4.6-17.6c0,0,0,0,0-0.1l5-18.9
		c4.1,0.7,8.2,1.2,12.3,1.7v55.6c0,3.9,2.1,7.3,5.6,9c3.5,1.7,7.5,1.3,10.6-1l17.4-13.4c0.8-0.6,1.9-0.6,2.7,0l17.4,13.3
		c1.8,1.4,4,2.1,6.1,2.1c1.5,0,3.1-0.4,4.5-1.1c3.4-1.7,5.6-5.2,5.6-9V192c0,0,0,0,0-0.1l0-13.3c2.8-0.3,5.5-0.7,8.3-1l4.7,18.3
		c0,0,0,0.1,0.1,0.1l4.6,17.6l6,23.2c1,3.7,3.9,6.6,7.7,7.3c0.7,0.1,1.4,0.2,2.1,0.2c3.1,0,6-1.4,7.9-3.9l13.5-17.3
		c0.6-0.8,1.7-1.1,2.7-0.7l20.2,8.5c3.6,1.5,7.6,0.9,10.5-1.7C272.3,226.8,273.5,222.9,272.6,219.1z M75.6,234.8
		c-0.4,1.2-1.3,1.6-1.8,1.6c-0.4,0.1-1.5,0.2-2.3-0.9l-13.5-17.2c-1.9-2.5-4.9-3.9-7.9-3.9c-1.3,0-2.7,0.2-3.9,0.8l-20.2,8.5
		c-1.2,0.5-2.1-0.1-2.4-0.4c-0.4-0.3-1.1-1.1-0.7-2.3l5-19.4l52.7,13.7L75.6,234.8z M82.6,207.9L30,194.2l2.7-10.2l12,3.1l40.6,10.6
		L82.6,207.9z M87.2,190.1l-52.6-13.7l3.9-14.8c17.5,6.2,34.9,10.9,52.4,14L87.2,190.1z M173.3,234.2c0,1.2-0.9,1.8-1.2,2
		c-0.4,0.2-1.4,0.5-2.4-0.2l-17.3-13.3c-1.8-1.4-4-2.1-6.2-2.1c-2.1,0-4.3,0.7-6.1,2.1L122.6,236c-1.1,0.8-2,0.4-2.4,0.2
		c-0.4-0.2-1.3-0.8-1.3-2v-20h54.4L173.3,234.2L173.3,234.2z M173.3,206.4h-54.4v-10.5h54.4V206.4z M173.3,188.1h-54.4v-8.6
		c9.1,0.8,18.1,1.3,27.2,1.3c9.1,0,18.1-0.5,27.2-1.3L173.3,188.1z M197.2,176.5c5.6-1,13.8-2.8,14.6-3c12-2.6,24.1-5.9,36.1-9.9
		c0,0,1.2-0.4,2-0.7h0l3.4,13.5l-52.6,13.7L197.2,176.5z M202.7,197.7l52.7-13.7l2.7,10.2l-52.7,13.7L202.7,197.7z M264.3,223.4
		c-0.4,0.3-1.2,0.9-2.4,0.4l-20.2-8.5c-4.3-1.8-9.1-0.5-11.9,3.1l-13.5,17.3c-0.8,1.1-1.9,0.9-2.3,0.9c-0.4-0.1-1.4-0.4-1.7-1.6
		l-5-19.4l52.6-13.7l5,19.4C265.3,222.3,264.6,223.1,264.3,223.4z"/>
	<polygon class="st1" points="85.3,197.7 82.6,207.9 30,194.2 32.7,184 44.7,187.1 	"/>
	<rect x="118.9" y="195.9" class="st1" width="54.4" height="10.5"/>
	<polygon class="st1" points="258,194.2 205.3,207.9 202.7,197.7 255.3,184 	"/>
	<path class="st0" d="M272.6,113.9l-6.1-23.1l-4.6-17.7v0l-4.6-17.9c3.4-1.2,6.9-2.5,10.3-3.9c2-0.8,3-3.1,2.1-5.1
		c-0.8-2-3.1-3-5.1-2.1C186,75.6,106.2,75.6,27.5,44c-2-0.8-4.3,0.2-5.1,2.1c-0.8,2,0.2,4.3,2.1,5.1c2.2,0.9,4.3,1.7,6.5,2.5
		l-5,19.3v0l-4.6,17.7l-6,23.1c-1,3.7,0.2,7.7,3.2,10.2c2.9,2.5,7,3.2,10.5,1.6l20.2-8.5c0.9-0.4,2-0.1,2.7,0.7l13.5,17.3
		c2,2.5,4.9,3.9,7.9,3.9c0.7,0,1.4-0.1,2.1-0.2c3.8-0.8,6.7-3.6,7.7-7.3l6.1-23.2l4.6-17.6c0,0,0,0,0-0.1l5-18.9
		c4.1,0.7,8.2,1.2,12.3,1.7V129c0,3.9,2.1,7.3,5.6,9c3.5,1.7,7.5,1.3,10.6-1l17.4-13.4c0.8-0.6,1.9-0.6,2.7,0l17.4,13.3
		c1.8,1.4,4,2.1,6.1,2.1c1.5,0,3.1-0.4,4.5-1.1c3.4-1.7,5.6-5.2,5.6-9V86.8c0,0,0,0,0-0.1l0-13.3c2.8-0.3,5.5-0.7,8.3-1l4.7,18.3
		c0,0,0,0.1,0.1,0.1l4.6,17.6l6,23.2c1,3.7,3.9,6.6,7.7,7.3c0.7,0.1,1.4,0.2,2.1,0.2c3.1,0,6-1.4,7.9-3.9L236,118
		c0.6-0.8,1.7-1.1,2.7-0.7l20.2,8.5c3.6,1.5,7.6,0.9,10.5-1.7C272.3,121.6,273.5,117.7,272.6,113.9z M75.6,129.6
		c-0.4,1.2-1.3,1.6-1.8,1.6c-0.4,0.1-1.5,0.2-2.3-0.9l-13.5-17.2c-1.9-2.5-4.9-3.9-7.9-3.9c-1.3,0-2.7,0.2-3.9,0.8l-20.2,8.5
		c-1.2,0.5-2.1-0.1-2.4-0.4c-0.4-0.3-1.1-1.1-0.7-2.3l5-19.4l52.7,13.7L75.6,129.6z M82.6,102.7L30,89l2.7-10.2l12,3.1l40.6,10.6
		L82.6,102.7z M87.2,84.9L34.6,71.3l3.9-14.8c17.5,6.2,34.9,10.9,52.4,14L87.2,84.9z M173.3,129c0,1.2-0.9,1.8-1.2,2
		c-0.4,0.2-1.4,0.5-2.4-0.2l-17.3-13.3c-1.8-1.4-4-2.1-6.2-2.1c-2.1,0-4.3,0.7-6.1,2.1l-17.3,13.3c-1.1,0.8-2,0.4-2.4,0.2
		c-0.4-0.2-1.3-0.8-1.3-2v-20h54.4L173.3,129L173.3,129z M173.3,101.2h-54.4V90.7h54.4V101.2z M173.3,82.9h-54.4v-8.6
		c9.1,0.8,18.1,1.3,27.2,1.3c9.1,0,18.1-0.5,27.2-1.3L173.3,82.9z M197.2,71.3c5.6-1,13.8-2.8,14.6-3c12-2.6,24.1-5.9,36.1-9.9
		c0,0,1.2-0.4,2-0.7h0l3.4,13.5l-52.6,13.7L197.2,71.3z M202.7,92.5l52.7-13.7L258,89l-52.7,13.7L202.7,92.5z M264.3,118.2
		c-0.4,0.3-1.2,0.9-2.4,0.4l-20.2-8.5c-4.3-1.8-9.1-0.5-11.9,3.1l-13.5,17.3c-0.8,1.1-1.9,0.9-2.3,0.9c-0.4-0.1-1.4-0.4-1.7-1.6
		l-5-19.4l52.6-13.7l5,19.4C265.3,117.1,264.6,117.9,264.3,118.2z"/>
	<polygon class="st1" points="258,89 205.3,102.7 202.7,92.5 255.3,78.8 	"/>
	<polygon class="st1" points="85.3,92.5 82.6,102.7 30,89 32.7,78.8 44.7,81.9 	"/>
	<rect x="118.9" y="90.7" class="st1" width="54.4" height="10.5"/>
</g>
</svg>
